<svg xmlns="http://www.w3.org/2000/svg" xmlns:xlink="http://www.w3.org/1999/xlink" data-v-0dd9719b="" version="1.0" width="100%" height="100%" viewBox="0 0 340.000000 250.000000" preserveAspectRatio="xMidYMid meet" color-interpolation-filters="sRGB" style="margin: auto;"> <rect data-v-0dd9719b="" x="0" y="0" width="100%" height="100%" fill="#fff" fill-opacity="1" class="background"/> <rect data-v-0dd9719b="" x="0" y="0" width="100%" height="100%" fill="url(#watermark)" fill-opacity="1" class="watermarklayer"/> <g data-v-0dd9719b="" fill="#0c0c0c" class="icon-text-wrapper icon-svg-group iconsvg" transform="translate(46.62000274658203,95.00180053710938)"><g class="iconsvg-imagesvg" transform="translate(0,0)"><g><rect fill="#0c0c0c" fill-opacity="0" stroke-width="2" x="0" y="0" width="60" height="59.996400215987045" class="image-rect"/> <svg x="0" y="0" width="60" height="59.996400215987045" filtersec="colorsb4833692271" class="image-svg-svg primary" style="overflow: visible;"><svg xmlns="http://www.w3.org/2000/svg" viewBox="1.003000020980835 1.0029993057250977 98.00700378417969 98.0009994506836"><path fill="#0C0C0C" d="M84.652 15.348C75.399 6.095 63.089 1.003 50 1.003S24.601 6.095 15.348 15.348 1.003 36.911 1.003 50s5.1 25.399 14.352 34.652c9.253 9.253 21.556 14.352 34.652 14.352s25.399-5.1 34.652-14.352C93.912 75.399 99.01 63.096 99.01 50s-5.106-25.399-14.36-34.652zm-49.528-1.07c9.735 0 17.664 7.929 17.664 17.665S44.86 49.607 35.124 49.607 17.46 41.679 17.46 31.943s7.928-17.664 17.664-17.664z"/></svg></svg> <!----></g></g> <g transform="translate(67,5.9891357421875)"><g data-gra="path-name" fill-rule="" class="tp-name iconsvg-namesvg" transform="translate(0,0)"><g transform="scale(1)"><g><path d="M10.43-14.57L10.67-14.57Q11.5-15.36 12.54-16.04L12.54-16.04Q13.45-16.6 14.73-17.08 16-17.55 17.59-17.55L17.59-17.55Q19.5-17.55 20.44-16.68 21.38-15.8 21.49-14.53L21.49-14.53 21.73-14.53Q22.65-15.36 23.72-16.04L23.72-16.04Q24.64-16.6 25.87-17.08 27.11-17.55 28.5-17.55L28.5-17.55Q30.57-17.55 31.86-16.42 33.16-15.29 33.16-13.49L33.16-13.49Q33.16-12.58 32.84-11.07 32.52-9.55 32.12-7.76L32.12-7.76 30.45 0 22.61 0 24.76-10.39Q24.88-10.99 25-11.54 25.12-12.1 25.12-12.46L25.12-12.46Q25.12-13.02 24.8-13.39 24.48-13.77 23.88-13.77L23.88-13.77Q23.13-13.77 22.47-13.24 21.81-12.7 21.46-12.34L21.46-12.34 18.87 0 11.42 0 13.61-10.39Q13.69-10.91 13.81-11.44 13.93-11.98 13.93-12.42L13.93-12.42Q13.93-13.02 13.63-13.39 13.33-13.77 12.74-13.77L12.74-13.77Q12.02-13.77 11.36-13.26 10.71-12.74 10.35-12.38L10.35-12.38 7.72 0-0.4 0 3.22-17.12 9.71-17.12 10.43-14.57ZM36.38-12.1L37.14-15.64Q39.17-16.64 41.3-17.1 43.43-17.55 46.05-17.55L46.05-17.55Q48.6-17.55 50.27-17.16 51.95-16.76 52.94-16 53.94-15.25 54.33-14.21 54.73-13.18 54.73-11.86L54.73-11.86Q54.73-11.11 54.63-10.23 54.53-9.35 54.41-8.76L54.41-8.76 52.54 0 46.13 0 45.42-2.55 45.18-2.55Q43.91-1.15 42.21-0.42 40.52 0.32 38.85 0.32L38.85 0.32Q37.89 0.32 36.98 0.04 36.06-0.24 35.35-0.82 34.63-1.39 34.19-2.29 33.75-3.18 33.75-4.46L33.75-4.46Q33.75-6.53 34.89-7.74 36.02-8.96 37.87-9.57 39.73-10.19 42.05-10.35 44.38-10.51 46.73-10.51L46.73-10.51Q46.81-10.91 46.93-11.64 47.05-12.38 47.05-12.94L47.05-12.94Q47.05-13.65 46.67-14.27 46.29-14.89 45.1-14.89L45.1-14.89Q43.71-14.89 43.05-14.07 42.39-13.26 42.19-12.1L42.19-12.1 36.38-12.1ZM45.66-5.57L46.29-8.64 45.58-8.64Q44.42-8.64 43.61-8.34 42.79-8.04 42.29-7.56 41.8-7.09 41.56-6.49 41.32-5.89 41.32-5.29L41.32-5.29Q41.32-4.34 41.82-3.86 42.31-3.38 42.99-3.38L42.99-3.38Q43.83-3.38 44.64-3.98 45.46-4.58 45.66-5.57L45.66-5.57ZM70.69-14.53L72.49-17.12 78.93-17.12 75.67-1.63Q75.31 0.16 74.48 1.67 73.64 3.18 72.15 4.3 70.65 5.41 68.41 6.05 66.16 6.69 62.93 6.69L62.93 6.69Q62.34 6.69 61.5 6.67 60.66 6.65 59.79 6.63 58.91 6.61 58.12 6.57 57.32 6.53 56.84 6.49L56.84 6.49 57.6 3.62Q58.87 3.82 60.21 3.84 61.54 3.86 62.49 3.86L62.49 3.86Q63.69 3.86 64.5 3.64 65.32 3.42 65.86 2.95 66.4 2.47 66.73 1.67 67.07 0.88 67.27-0.28L67.27-0.28 67.75-2.87 67.47-2.87Q67.23-2.51 66.77-2.01 66.32-1.51 65.6-1.05 64.88-0.6 63.91-0.3 62.93 0 61.7 0L61.7 0Q60.31 0 59.33-0.42 58.35-0.84 57.76-1.57 57.16-2.31 56.88-3.32 56.6-4.34 56.6-5.53L56.6-5.53Q56.6-6.05 56.68-7.13 56.76-8.2 57.06-9.55 57.36-10.91 57.94-12.32 58.51-13.73 59.49-14.89 60.46-16.04 61.92-16.8 63.37-17.55 65.44-17.55L65.44-17.55Q66.08-17.55 66.83-17.43 67.59-17.32 68.31-17 69.02-16.68 69.58-16.08 70.14-15.48 70.46-14.53L70.46-14.53 70.69-14.53ZM68.03-13.65L68.03-13.65Q67.07-13.65 66.44-12.64 65.8-11.62 65.4-10.27 65-8.92 64.82-7.58 64.64-6.25 64.64-5.61L64.64-5.61Q64.64-4.82 64.9-4.28 65.16-3.74 65.84-3.74L65.84-3.74Q66.24-3.74 66.61-3.94 66.99-4.14 67.33-4.4 67.67-4.66 67.93-4.94 68.19-5.21 68.31-5.37L68.31-5.37 69.78-12.34Q69.46-12.78 69.04-13.22 68.62-13.65 68.03-13.65ZM90.64-17.12L86.93 0 78.85 0 82.48-17.12 90.64-17.12ZM91.67-22.33L91.67-22.33Q91.67-21.42 91.29-20.74 90.92-20.06 90.3-19.58 89.68-19.11 88.89-18.87 88.09-18.63 87.25-18.63L87.25-18.63Q85.66-18.63 84.59-19.39 83.51-20.14 83.51-21.77L83.51-21.77Q83.51-22.65 83.87-23.35 84.23-24.04 84.85-24.5 85.46-24.96 86.28-25.2 87.09-25.44 87.97-25.44L87.97-25.44Q89.52-25.44 90.6-24.68 91.67-23.92 91.67-22.33ZM109.74-6.57L108.59-0.96Q106.92-0.28 105.07 0.02 103.22 0.32 100.87 0.32L100.87 0.32Q98.8 0.32 97.07-0.1 95.33-0.52 94.06-1.43 92.79-2.35 92.07-3.8 91.35-5.25 91.35-7.32L91.35-7.32Q91.35-9.47 92.09-11.32 92.83-13.18 94.32-14.57 95.81-15.96 98.12-16.76 100.43-17.55 103.61-17.55L103.61-17.55Q106.2-17.55 108.11-17.14 110.02-16.72 111.26-15.25L111.26-15.25 110.14-10.15 104.73-10.15Q104.77-10.83 104.81-11.34 104.85-11.86 104.85-12.5L104.85-12.5Q104.85-13.77 104.57-14.31 104.29-14.85 103.65-14.85L103.65-14.85Q102.54-14.85 101.7-13.75 100.87-12.66 100.33-11.13 99.79-9.59 99.53-7.9 99.27-6.21 99.27-5.02L99.27-5.02Q99.27-4.58 99.31-4.12 99.35-3.66 99.49-3.26 99.63-2.87 99.87-2.63 100.11-2.39 100.55-2.39L100.55-2.39Q100.95-2.39 101.46-2.63 101.98-2.87 102.46-3.36 102.94-3.86 103.37-4.66 103.81-5.45 104.05-6.57L104.05-6.57 109.74-6.57ZM123.83-4.74L126.5-17.12 134.62-17.12 130.96 0 124.51 0 123.79-2.55 123.56-2.55Q122.52-1.31 120.75-0.5 118.98 0.32 117.19 0.32L117.19 0.32Q114.8 0.32 113.45-0.9 112.09-2.11 112.09-4.06L112.09-4.06Q112.09-5.06 112.43-6.55 112.77-8.04 113.05-9.35L113.05-9.35 114.72-17.12 122.8-17.12 120.81-7.8Q120.73-7.48 120.65-7.05 120.57-6.61 120.49-6.19 120.41-5.77 120.35-5.39 120.29-5.02 120.29-4.78L120.29-4.78Q120.29-4.18 120.55-3.76 120.81-3.34 121.49-3.34L121.49-3.34Q122.2-3.34 122.84-3.82 123.48-4.3 123.83-4.74L123.83-4.74ZM142.78-2.59L140.99 0 134.54 0 140.19-26.75 148.35-26.75 145.77-14.57 146.05-14.57Q147.36-16.08 149.01-16.74 150.66-17.39 152.3-17.39L152.3-17.39Q153.69-17.39 154.62-16.98 155.56-16.56 156.12-15.84 156.67-15.13 156.91-14.13 157.15-13.14 157.15-12.02L157.15-12.02Q157.15-11.46 157.07-10.35 156.99-9.23 156.71-7.86 156.44-6.49 155.92-5.04 155.4-3.58 154.54-2.39 153.69-1.19 152.39-0.44 151.1 0.32 149.31 0.32L149.31 0.32Q148.24 0.32 147.22 0.08 146.21-0.16 145.39-0.56 144.57-0.96 143.96-1.49 143.34-2.03 143.06-2.59L143.06-2.59 142.78-2.59ZM145.49-3.54L145.49-3.54Q146.44-3.54 147.08-4.56 147.72-5.57 148.12-6.95 148.51-8.32 148.69-9.69 148.87-11.07 148.87-11.74L148.87-11.74Q148.87-12.54 148.61-13.06 148.35-13.57 147.68-13.57L147.68-13.57Q146.88-13.57 146.21-13 145.53-12.42 145.21-12.02L145.21-12.02 143.66-4.9Q143.94-4.42 144.39-3.98 144.85-3.54 145.49-3.54ZM178.09-8L166.9-8Q166.74-7.13 166.69-6.33 166.63-5.53 166.63-4.9L166.63-4.9Q166.63-4.54 166.67-4.1 166.7-3.66 166.84-3.28 166.98-2.91 167.24-2.65 167.5-2.39 167.98-2.39L167.98-2.39Q168.34-2.39 168.79-2.63 169.25-2.87 169.71-3.3 170.17-3.74 170.59-4.38 171-5.02 171.24-5.81L171.24-5.81 177.77-5.81 176.74-1.55Q175.94-1.03 174.9-0.68 173.87-0.32 172.72-0.1 171.56 0.12 170.37 0.22 169.17 0.32 168.1 0.32L168.1 0.32Q166.11 0.32 164.4-0.04 162.68-0.4 161.41-1.27 160.14-2.15 159.4-3.6 158.66-5.06 158.66-7.2L158.66-7.2Q158.66-9.16 159.28-11.03 159.9-12.9 161.35-14.35 162.8-15.8 165.25-16.68 167.7-17.55 171.36-17.55L171.36-17.55Q175.34-17.55 177.35-16.32 179.36-15.09 179.36-12.46L179.36-12.46Q179.36-11.38 179.04-10.13 178.73-8.88 178.09-8L178.09-8ZM172.2-12.74L172.2-12.74Q172.2-13.97 171.8-14.41 171.4-14.85 170.84-14.85L170.84-14.85Q170.21-14.85 169.67-14.43 169.13-14.01 168.7-13.31 168.26-12.62 167.9-11.72 167.54-10.83 167.3-9.83L167.3-9.83 171.84-9.83Q171.92-10.31 172-10.83L172-10.83Q172.08-11.26 172.14-11.78 172.2-12.3 172.2-12.74Z" transform="translate(0.4000000059604645, 26.75)"/></g> <!----> <!----> <!----> <!----> <!----> <!----> <!----></g></g> <g data-gra="path-slogan" fill-rule="" class="tp-slogan iconsvg-slogansvg" fill="#0c0c0c" transform="translate(5,39.439998626708984)"><rect x="0" height="1" y="3.7899999618530273" width="76.86499691009521"/> <rect height="1" y="3.7899999618530273" width="76.86499691009521" x="92.89499759674072"/> <g transform="translate(76.3,-2)"><g transform="scale(1.4)"><path d="M6.56 0L5.72-2.48L2.25-2.48L1.36 0L0.19 0L3.42-8.58L4.73-8.58L7.83 0L6.56 0ZM3.98-7.31L2.63-3.52L5.30-3.52L4.03-7.31L3.98-7.31ZM9.05-8.58L10.22-8.58L10.22 0L9.05 0L9.05-8.58Z" transform="translate(-0.1875, 8.578125)"/></g></g></g></g></g><defs v-gra="od"/></svg>